<svg width="181" height="125" viewBox="0 0 181 125" fill="none" xmlns="http://www.w3.org/2000/svg">
<path d="M32.45 21.08V39H24.715V21.08H16.805V14.92H40.325V21.08H32.45ZM51.2808 22.445C52.0275 21.6983 52.9025 21.1267 53.9058 20.73C54.9092 20.31 55.9592 20.1 57.0558 20.1C59.2025 20.1 60.8125 20.695 61.8858 21.885C62.9592 23.075 63.4958 24.79 63.4958 27.03V39H56.5308V27.87C56.5308 27.0767 56.3208 26.4467 55.9008 25.98C55.5042 25.49 54.9325 25.245 54.1858 25.245C53.3225 25.245 52.6225 25.525 52.0858 26.085C51.5492 26.645 51.2808 27.3333 51.2808 28.15V39H44.3158V13.625H51.2808V22.445ZM77.2155 20.1C80.5989 20.1 83.1772 20.8933 84.9505 22.48C86.7472 24.0667 87.6455 26.4933 87.6455 29.76V30.95H73.7855C73.7855 32.28 74.0772 33.2833 74.6605 33.96C75.2672 34.6367 76.2122 34.975 77.4955 34.975C78.6622 34.975 79.5139 34.73 80.0505 34.24C80.6105 33.75 80.8905 33.0967 80.8905 32.28H87.6455C87.6455 34.52 86.7939 36.27 85.0905 37.53C83.3872 38.79 80.9022 39.42 77.6355 39.42C74.2055 39.42 71.5455 38.6267 69.6555 37.04C67.7655 35.43 66.8205 33.0033 66.8205 29.76C66.8205 26.5867 67.7422 24.1833 69.5855 22.55C71.4289 20.9167 73.9722 20.1 77.2155 20.1ZM77.4955 24.545C75.3022 24.545 74.0772 25.5833 73.8205 27.66H80.6105C80.6105 26.7033 80.3305 25.945 79.7705 25.385C79.2339 24.825 78.4755 24.545 77.4955 24.545ZM39.275 69V60.32C39.275 59.2467 39.31 58.15 39.38 57.03C39.4733 55.8867 39.5667 54.93 39.66 54.16C39.7533 53.39 39.8117 52.9 39.835 52.69H39.695L35.25 69H29.195L24.715 52.725H24.575C24.5983 52.935 24.6567 53.425 24.75 54.195C24.8667 54.9417 24.9717 55.8867 25.065 57.03C25.1583 58.15 25.205 59.2467 25.205 60.32V69H18.1V44.92H29.02L32.66 58.815H32.8L36.405 44.92H46.94V69H39.275ZM60.2868 50.1C63.1101 50.1 65.4084 50.5783 67.1818 51.535C68.9551 52.4683 69.8418 53.9967 69.8418 56.12V63.33C69.8418 63.7267 69.9351 64.0533 70.1218 64.31C70.3084 64.5667 70.5884 64.695 70.9618 64.695H72.2218V68.72C72.1518 68.7667 71.9651 68.8483 71.6618 68.965C71.3818 69.0583 70.9734 69.1517 70.4368 69.245C69.9001 69.3617 69.2818 69.42 68.5818 69.42C67.2284 69.42 66.1084 69.2217 65.2218 68.825C64.3584 68.405 63.7634 67.8333 63.4368 67.11C62.5501 67.81 61.5584 68.37 60.4618 68.79C59.3651 69.21 58.0818 69.42 56.6118 69.42C52.2718 69.42 50.1018 67.6933 50.1018 64.24C50.1018 62.4433 50.5801 61.0783 51.5368 60.145C52.5168 59.1883 53.9168 58.535 55.7368 58.185C57.5568 57.835 59.9368 57.66 62.8768 57.66V56.75C62.8768 56.0267 62.6201 55.4783 62.1068 55.105C61.6168 54.7317 60.9751 54.545 60.1818 54.545C59.4584 54.545 58.8284 54.6733 58.2918 54.93C57.7784 55.1867 57.5218 55.595 57.5218 56.155V56.295H50.6618C50.6384 56.1783 50.6268 56.015 50.6268 55.805C50.6268 54.055 51.4551 52.6667 53.1118 51.64C54.7918 50.6133 57.1834 50.1 60.2868 50.1ZM62.8768 60.95C60.8934 60.95 59.4234 61.1717 58.4668 61.615C57.5334 62.035 57.0668 62.6067 57.0668 63.33C57.0668 64.4967 57.8601 65.08 59.4468 65.08C60.3568 65.08 61.1501 64.835 61.8268 64.345C62.5268 63.855 62.8768 63.2483 62.8768 62.525V60.95ZM85.7315 50.065C86.2682 50.065 86.7465 50.135 87.1665 50.275C87.5865 50.3917 87.7965 50.4617 87.7965 50.485V56.33H85.5565C84.1098 56.33 83.0598 56.7033 82.4065 57.45C81.7765 58.1967 81.4615 59.305 81.4615 60.775V69H74.4965V50.52H80.2015L80.6565 53.32C81.0765 52.2467 81.7415 51.4417 82.6515 50.905C83.5615 50.345 84.5882 50.065 85.7315 50.065ZM97.0482 52.235C98.3782 50.8117 100.105 50.1 102.228 50.1C104.725 50.1 106.65 50.9167 108.003 52.55C109.357 54.16 110.033 56.5517 110.033 59.725C110.033 62.9217 109.357 65.3367 108.003 66.97C106.65 68.6033 104.725 69.42 102.228 69.42C99.6616 69.42 97.7016 68.405 96.3482 66.375L95.7532 69H90.0832V43.625H97.0482V52.235ZM100.058 55.245C99.0316 55.245 98.2616 55.6183 97.7482 56.365C97.2349 57.0883 96.9782 58.0333 96.9782 59.2V60.355C96.9782 61.5217 97.2349 62.4667 97.7482 63.19C98.2616 63.9133 99.0316 64.275 100.058 64.275C102.065 64.275 103.068 63.085 103.068 60.705V58.85C103.068 56.4467 102.065 55.245 100.058 55.245ZM113.638 69V43.625H120.603V69H113.638ZM134.603 50.1C137.987 50.1 140.565 50.8933 142.338 52.48C144.135 54.0667 145.033 56.4933 145.033 59.76V60.95H131.173C131.173 62.28 131.465 63.2833 132.048 63.96C132.655 64.6367 133.6 64.975 134.883 64.975C136.05 64.975 136.902 64.73 137.438 64.24C137.998 63.75 138.278 63.0967 138.278 62.28H145.033C145.033 64.52 144.182 66.27 142.478 67.53C140.775 68.79 138.29 69.42 135.023 69.42C131.593 69.42 128.933 68.6267 127.043 67.04C125.153 65.43 124.208 63.0033 124.208 59.76C124.208 56.5867 125.13 54.1833 126.973 52.55C128.817 50.9167 131.36 50.1 134.603 50.1ZM134.883 54.545C132.69 54.545 131.465 55.5833 131.208 57.66H137.998C137.998 56.7033 137.718 55.945 137.158 55.385C136.622 54.825 135.863 54.545 134.883 54.545ZM28.705 74.5C31.785 74.5 34.3167 75.13 36.3 76.39C38.2833 77.6267 39.2983 79.47 39.345 81.92V82.34H32.1V82.2C32.1 81.5 31.8433 80.9167 31.33 80.45C30.8167 79.9833 30.035 79.75 28.985 79.75C27.9583 79.75 27.165 79.9017 26.605 80.205C26.0683 80.5083 25.8 80.8817 25.8 81.325C25.8 81.955 26.1733 82.4217 26.92 82.725C27.6667 83.0283 28.8683 83.3433 30.525 83.67C32.4617 84.0667 34.0483 84.4867 35.285 84.93C36.545 85.35 37.6417 86.05 38.575 87.03C39.5083 88.01 39.9867 89.34 40.01 91.02C40.01 93.8667 39.0417 95.9783 37.105 97.355C35.1917 98.7317 32.625 99.42 29.405 99.42C25.6483 99.42 22.72 98.79 20.62 97.53C18.5433 96.27 17.505 94.0417 17.505 90.845H24.82C24.82 92.0583 25.135 92.875 25.765 93.295C26.395 93.6917 27.375 93.89 28.705 93.89C29.685 93.89 30.49 93.785 31.12 93.575C31.7733 93.365 32.1 92.9333 32.1 92.28C32.1 91.6967 31.7383 91.265 31.015 90.985C30.315 90.6817 29.16 90.3667 27.55 90.04C25.59 89.62 23.9683 89.1883 22.685 88.745C21.4017 88.2783 20.2817 87.52 19.325 86.47C18.3683 85.42 17.89 83.9967 17.89 82.2C17.89 79.5633 18.905 77.6267 20.935 76.39C22.9883 75.13 25.5783 74.5 28.705 74.5ZM55.6788 80.52V85.245H51.7588V92.28C51.7588 93.12 51.8988 93.7383 52.1788 94.135C52.4588 94.5083 52.9721 94.695 53.7188 94.695H55.6788V98.79C55.1188 98.9767 54.3955 99.1283 53.5088 99.245C52.6221 99.3617 51.8521 99.42 51.1988 99.42C49.1455 99.42 47.5588 99.0467 46.4388 98.3C45.3421 97.5533 44.7938 96.2817 44.7938 94.485V85.245H42.2038V80.52H45.0738L46.5788 74.92H51.7588V80.52H55.6788ZM68.4655 80.1C71.7089 80.1 74.2522 80.9283 76.0955 82.585C77.9622 84.2183 78.8955 86.61 78.8955 89.76C78.8955 92.91 77.9622 95.3133 76.0955 96.97C74.2522 98.6033 71.7089 99.42 68.4655 99.42C65.2222 99.42 62.6789 98.6033 60.8355 96.97C58.9922 95.3367 58.0705 92.9333 58.0705 89.76C58.0705 86.5867 58.9922 84.1833 60.8355 82.55C62.6789 80.9167 65.2222 80.1 68.4655 80.1ZM68.4655 84.825C66.1789 84.825 65.0355 86.1433 65.0355 88.78V90.775C65.0355 93.3883 66.1789 94.695 68.4655 94.695C70.7755 94.695 71.9305 93.3883 71.9305 90.775V88.78C71.9305 86.1433 70.7755 84.825 68.4655 84.825ZM93.4903 80.065C94.0269 80.065 94.5053 80.135 94.9253 80.275C95.3453 80.3917 95.5553 80.4617 95.5553 80.485V86.33H93.3153C91.8686 86.33 90.8186 86.7033 90.1653 87.45C89.5353 88.1967 89.2203 89.305 89.2203 90.775V99H82.2553V80.52H87.9603L88.4153 83.32C88.8353 82.2467 89.5003 81.4417 90.4103 80.905C91.3203 80.345 92.3469 80.065 93.4903 80.065ZM107.909 80.1C111.292 80.1 113.871 80.8933 115.644 82.48C117.441 84.0667 118.339 86.4933 118.339 89.76V90.95H104.479C104.479 92.28 104.771 93.2833 105.354 93.96C105.961 94.6367 106.906 94.975 108.189 94.975C109.356 94.975 110.207 94.73 110.744 94.24C111.304 93.75 111.584 93.0967 111.584 92.28H118.339C118.339 94.52 117.487 96.27 115.784 97.53C114.081 98.79 111.596 99.42 108.329 99.42C104.899 99.42 102.239 98.6267 100.349 97.04C98.4589 95.43 97.5139 93.0033 97.5139 89.76C97.5139 86.5867 98.4356 84.1833 100.279 82.55C102.122 80.9167 104.666 80.1 107.909 80.1ZM108.189 84.545C105.996 84.545 104.771 85.5833 104.514 87.66H111.304C111.304 86.7033 111.024 85.945 110.464 85.385C109.927 84.825 109.169 84.545 108.189 84.545Z" fill="#449C97"/>
<rect x="1" y="11" width="3" height="90" fill="#DBD6D0"/>
<rect x="180.235" y="1.86108" width="3" height="180" transform="rotate(90.528 180.235 1.86108)" fill="#DBD6D0"/>
</svg>
